<svg width="21" height="20" viewBox="0 0 21 20" fill="none" xmlns="http://www.w3.org/2000/svg">
<path d="M20.75 10.0001C20.75 4.47731 16.2728 0.00012207 10.75 0.00012207C5.22719 0.00012207 0.75 4.47731 0.75 10.0001C0.75 14.9914 4.40687 19.1285 9.1875 19.8786V12.8907H6.64844V10.0001H9.1875V7.797C9.1875 5.29075 10.6805 3.90637 12.9647 3.90637C14.0588 3.90637 15.2031 4.10168 15.2031 4.10168V6.56262H13.9422C12.6999 6.56262 12.3125 7.33348 12.3125 8.12434V10.0001H15.0859L14.6426 12.8907H12.3125V19.8786C17.0931 19.1285 20.75 14.9915 20.75 10.0001Z" fill="#1877F2"/>
<path d="M14.6426 12.8907L15.0859 10.0001H12.3125V8.12434C12.3125 7.3334 12.6999 6.56262 13.9422 6.56262H15.2031V4.10168C15.2031 4.10168 14.0588 3.90637 12.9646 3.90637C10.6805 3.90637 9.1875 5.29075 9.1875 7.797V10.0001H6.64844V12.8907H9.1875V19.8786C9.70439 19.9596 10.2268 20.0002 10.75 20.0001C11.2732 20.0002 11.7956 19.9596 12.3125 19.8786V12.8907H14.6426Z" fill="white"/>
</svg>
