<svg width="21" height="22" viewBox="0 0 21 22" fill="none" xmlns="http://www.w3.org/2000/svg">
<path d="M7.11749 1.35491C5.05429 2.07065 3.27499 3.42916 2.04094 5.23087C0.806895 7.03259 0.183142 9.18256 0.261305 11.365C0.339467 13.5474 1.11543 15.6472 2.4752 17.3561C3.83498 19.0649 5.70691 20.2926 7.81602 20.8589C9.52593 21.3001 11.3174 21.3195 13.0365 20.9154C14.5937 20.5656 16.0335 19.8174 17.2147 18.744C18.4442 17.5927 19.3365 16.1281 19.7959 14.5076C20.2952 12.7454 20.3841 10.8922 20.0556 9.09037H10.4537V13.0734H16.0145C15.9034 13.7087 15.6652 14.315 15.3143 14.8561C14.9633 15.3972 14.5069 15.8619 13.9721 16.2225C13.2931 16.6717 12.5276 16.9739 11.7249 17.1098C10.9198 17.2595 10.094 17.2595 9.28891 17.1098C8.47291 16.9411 7.701 16.6043 7.02231 16.1208C5.932 15.3491 5.11333 14.2526 4.68312 12.9879C4.24563 11.6996 4.24563 10.3029 4.68312 9.01455C4.98935 8.11149 5.4956 7.28925 6.16407 6.60922C6.92905 5.81671 7.89754 5.25022 8.96329 4.97191C10.029 4.69359 11.1508 4.7142 12.2056 5.03147C13.0296 5.28442 13.7831 5.72636 14.4061 6.32206C15.0331 5.69828 15.659 5.07288 16.2839 4.44587C16.6065 4.1087 16.9582 3.78767 17.276 3.44244C16.3251 2.55754 15.209 1.86898 13.9915 1.41622C11.7744 0.611196 9.34856 0.589562 7.11749 1.35491Z" fill="white"/>
<path d="M7.11757 1.3549C9.34845 0.589032 11.7743 0.610097 13.9916 1.41459C15.2093 1.87043 16.3249 2.56231 17.2745 3.4505C16.9519 3.79573 16.6115 4.11837 16.2824 4.45393C15.6564 5.07879 15.031 5.7015 14.4062 6.32205C13.7832 5.72635 13.0297 5.28441 12.2057 5.03147C11.1513 4.71308 10.0295 4.69128 8.96346 4.96846C7.89744 5.24563 6.92835 5.81108 6.16253 6.60276C5.49406 7.28279 4.98781 8.10503 4.68158 9.00809L1.33734 6.41885C2.53438 4.04507 4.60697 2.22932 7.11757 1.3549Z" fill="#E33629"/>
<path d="M0.450037 8.98381C0.629786 8.09297 0.928206 7.23026 1.33732 6.41876L4.68156 9.01446C4.24407 10.3028 4.24407 11.6995 4.68156 12.9879C3.56735 13.8482 2.4526 14.7129 1.33732 15.5819C0.313155 13.5433 0.00080302 11.2206 0.450037 8.98381Z" fill="#F8BD00"/>
<path d="M10.4537 9.08881H20.0557C20.3842 10.8907 20.2953 12.7439 19.796 14.506C19.3366 16.1265 18.4442 17.5911 17.2148 18.7424C16.1355 17.9003 15.0514 17.0646 13.9722 16.2225C14.5073 15.8616 14.964 15.3964 15.3149 14.8547C15.6658 14.3131 15.9038 13.7061 16.0145 13.0703H10.4537C10.4521 11.7442 10.4537 10.4165 10.4537 9.08881Z" fill="#587DBD"/>
<path d="M1.33569 15.5821C2.45098 14.7217 3.56572 13.857 4.67993 12.988C5.111 14.2531 5.93084 15.3496 7.02235 16.1209C7.70315 16.602 8.47674 16.9361 9.29379 17.1017C10.0989 17.2514 10.9247 17.2514 11.7298 17.1017C12.5325 16.9658 13.298 16.6636 13.977 16.2144C15.0563 17.0566 16.1404 17.8922 17.2196 18.7343C16.0386 19.8083 14.5988 20.5571 13.0413 20.9073C11.3223 21.3115 9.53081 21.2921 7.8209 20.8509C6.46853 20.4898 5.20532 19.8532 4.11046 18.9811C2.95161 18.0611 2.00511 16.9016 1.33569 15.5821Z" fill="#319F43"/>
</svg>
