<svg width="100" height="100" viewBox="0 0 100 100" fill="none" xmlns="http://www.w3.org/2000/svg">
<path fill="#2A2A2A" d="M21.0465 57.0001H16.7852L21.5863 42.4547H26.984L31.7852 57.0001H27.5238L24.342 46.4603H24.2284L21.0465 57.0001ZM20.2511 51.2615H28.2625V54.216H20.2511V51.2615ZM30.9524 45.6365V42.4547H43.5945V45.6365H39.2195V57.0001H35.3274V45.6365H30.9524ZM45.0806 57.0001V42.4547H49.0295V53.8183H54.9102V57.0001H45.0806ZM60.2848 57.0001H56.0235L60.8246 42.4547H66.2223L71.0235 57.0001H66.7621L63.5803 46.4603H63.4666L60.2848 57.0001ZM59.4894 51.2615H67.5007V54.216H59.4894V51.2615ZM79.6989 47.0001C79.661 46.5266 79.4835 46.1573 79.1662 45.8922C78.8537 45.627 78.3779 45.4944 77.7387 45.4944C77.3315 45.4944 76.9977 45.5442 76.7372 45.6436C76.4816 45.7383 76.2922 45.8685 76.1691 46.0342C76.046 46.1999 75.982 46.3893 75.9773 46.6024C75.9678 46.7776 75.9986 46.9362 76.0696 47.0782C76.1454 47.2156 76.2638 47.341 76.4247 47.4547C76.5857 47.5636 76.7917 47.663 77.0426 47.753C77.2936 47.8429 77.5919 47.9234 77.9375 47.9944L79.1307 48.2501C79.9356 48.4206 80.6246 48.6455 81.1975 48.9248C81.7704 49.2042 82.2391 49.5333 82.6037 49.9121C82.9683 50.2861 83.2358 50.7075 83.4063 51.1763C83.5815 51.645 83.6714 52.1564 83.6762 52.7103C83.6714 53.6668 83.4323 54.4764 82.9588 55.1393C82.4853 55.8022 81.8083 56.3065 80.9276 56.6521C80.0516 56.9978 78.9981 57.1706 77.7671 57.1706C76.5029 57.1706 75.3996 56.9836 74.4574 56.6095C73.5199 56.2354 72.7907 55.6602 72.2699 54.8836C71.7538 54.1024 71.4934 53.1033 71.4887 51.8865H75.2387C75.2623 52.3316 75.3736 52.7056 75.5725 53.0086C75.7713 53.3117 76.0507 53.5413 76.4105 53.6976C76.7751 53.8538 77.2084 53.9319 77.7103 53.9319C78.1317 53.9319 78.4844 53.8799 78.7685 53.7757C79.0526 53.6715 79.268 53.5271 79.4148 53.3425C79.5616 53.1578 79.6373 52.9471 79.6421 52.7103C79.6373 52.4878 79.5639 52.2937 79.4219 52.128C79.2846 51.9575 79.0573 51.806 78.7401 51.6734C78.4228 51.5361 77.9943 51.4083 77.4546 51.2899L76.0057 50.9774C74.7178 50.698 73.7022 50.2317 72.9588 49.5782C72.2202 48.9201 71.8532 48.0228 71.858 46.8865C71.8532 45.9632 72.0995 45.1559 72.5966 44.4646C73.0985 43.7686 73.7922 43.2264 74.6776 42.8382C75.5677 42.4499 76.5881 42.2558 77.7387 42.2558C78.9129 42.2558 79.9285 42.4523 80.7855 42.8453C81.6425 43.2383 82.3031 43.7923 82.7671 44.5072C83.2358 45.2175 83.4726 46.0484 83.4773 47.0001H79.6989Z" />
<circle cx="50" cy="50.0001" r="47" stroke="#2A2A2A" stroke-width="6"/>
</svg>
